<?xml version="1.0" encoding="utf-8"?>
<!-- Generator: Adobe Illustrator 16.0.0, SVG Export Plug-In . SVG Version: 6.00 Build 0)  -->
<!DOCTYPE svg PUBLIC "-//W3C//DTD SVG 1.1//EN" "http://www.w3.org/Graphics/SVG/1.1/DTD/svg11.dtd">
<svg version="1.1" id="Capa_1" xmlns="http://www.w3.org/2000/svg" xmlns:xlink="http://www.w3.org/1999/xlink" x="0px" y="0px"
	 width="512px" height="512px" viewBox="0 0 512 512" enable-background="new 0 0 512 512" xml:space="preserve">
<path d="M422.538,215.503c-0.264,0-0.479-0.215-0.479-0.48v-1.86c0-1.768-1.438-3.205-3.205-3.205s-3.205,1.438-3.205,3.205v1.86
	c0,0.265-0.215,0.48-0.479,0.48s-0.48-0.215-0.48-0.48v-1.86c0-2.297,1.869-4.165,4.165-4.165s4.165,1.868,4.165,4.165v1.86
	C423.02,215.288,422.804,215.503,422.538,215.503z"/>
<g>
	<rect x="411.855" y="213.526" fill="#FFFFFF" width="14" height="12.973"/>
	<path d="M425.355,214.026v11.973h-13v-11.973H425.355 M426.355,213.026h-15v13.973h15V213.026L426.355,213.026z"/>
</g>
</svg>
